<svg id="圖層_1" data-name="圖層 1" xmlns="http://www.w3.org/2000/svg" viewBox="0 0 102 34"><defs><style>.cls-1{fill:#fff;}.cls-2{fill:#92ca89;}.cls-3{fill:#dd9671;}.cls-4{fill:#050001;}.cls-5{fill:#040000;}</style></defs><title>mobile logo</title><circle class="cls-1" cx="17.34" cy="17.33" r="15.92"/><path class="cls-2" d="M1.9,20.76H14.36l-5.72,9.9S3.12,26.43,1.9,21"/><path class="cls-3" d="M33,20.76H20.56l5.72,9.9S31.79,26.43,33,21"/><path class="cls-4" d="M9.23,15.88H9a.11.11,0,0,0-.11.1l-.12,1.2L7.39,17,7.49,16a.11.11,0,0,0,0-.08.12.12,0,0,0-.08,0l-.19,0a.11.11,0,0,0-.12.1L7,17l-1.33-.13.11-1.16a.11.11,0,0,0-.1-.12l-.17,0a.11.11,0,0,0-.08,0,.12.12,0,0,0,0,.08L5.2,17.23a.11.11,0,0,0,0,.08.11.11,0,0,0,.08,0l3.76.36h0a.11.11,0,0,0,.11-.1L9.34,16a.12.12,0,0,0,0-.09A.11.11,0,0,0,9.23,15.88Z"/><path class="cls-4" d="M10.44,12.73l-3.77-.94a.11.11,0,0,0-.13.06l-.14.27a.11.11,0,0,0,0,.14l3,2.47.07,0h0a.12.12,0,0,0,.08-.06l.14-.27a.11.11,0,0,0,0-.14l-.93-.83L9,13l1.21.27a.11.11,0,0,0,.13-.06l.15-.3a.11.11,0,0,0,0-.1A.11.11,0,0,0,10.44,12.73Zm-1.83.11-.2.4-1-.73Z"/><path class="cls-4" d="M11.26,9.3a.34.34,0,0,0-.52,0l-.57.5a.24.24,0,0,1-.14.08s0,0-.07,0l-.67-.77a.26.26,0,0,1-.08-.15.12.12,0,0,1,.05-.1l.37-.32c.09-.08.14-.09.15-.09a.34.34,0,0,1,.15.11l.46.52a.11.11,0,0,0,.16,0l.19-.16a.12.12,0,0,0,0-.16l-.54-.62a.47.47,0,0,0-.3-.17A.49.49,0,0,0,9.52,8l-.57.5A.61.61,0,0,0,8.72,9a.52.52,0,0,0,.13.36l.79.9a.43.43,0,0,0,.66,0l.48-.42a.25.25,0,0,1,.15-.08s0,0,.07,0l.74.83a.19.19,0,0,1,.05.15.36.36,0,0,1-.14.2l-.26.23c-.09.08-.14.09-.15.09a.33.33,0,0,1-.15-.11l-.46-.52a.11.11,0,0,0-.16,0l-.19.16a.11.11,0,0,0,0,.16l.54.62a.43.43,0,0,0,.33.16h0a.52.52,0,0,0,.33-.12l.57-.5a.61.61,0,0,0,.22-.41.5.5,0,0,0-.13-.36Z"/><path class="cls-4" d="M13.87,7.94l.25-.09a.39.39,0,0,0,.25-.55l-.56-1.51a.12.12,0,0,0-.06-.06.11.11,0,0,0-.09,0l-.23.09a.11.11,0,0,0-.07.15l.53,1.42s0,.1-.11.15l-.48.18-.12,0s-.07,0-.09-.07l-.53-1.41a.11.11,0,0,0-.15-.07l-.25.09a.11.11,0,0,0-.07.15l.56,1.49a.4.4,0,0,0,.39.3.64.64,0,0,0,.22,0l.15-.05L14,9.73a.12.12,0,0,0,.06.06h.09l.24-.09a.11.11,0,0,0,.07-.15Z"/><path class="cls-4" d="M20.91,5.61l-.63-.18a.61.61,0,0,0-.47,0,.5.5,0,0,0-.23.3l-.83,2.86a.53.53,0,0,0,0,.37.57.57,0,0,0,.38.29l.67.2.18,0a.52.52,0,0,0,.25-.06.43.43,0,0,0,.23-.28l.23-.79a.11.11,0,0,0,0-.09.12.12,0,0,0-.07-.05l-.24-.07a.11.11,0,0,0-.14.08l-.19.67a.33.33,0,0,1-.09.16h0L19.8,9l-.33-.1c-.19-.06-.22-.11-.22-.11a.27.27,0,0,1,0-.18L20,6a.27.27,0,0,1,.09-.15.12.12,0,0,1,.12,0l.47.14c.11,0,.15.07.15.08a.33.33,0,0,1,0,.18l-.19.67a.12.12,0,0,0,.08.14l.24.07A.11.11,0,0,0,21.11,7l.23-.79a.41.41,0,0,0-.07-.38A.69.69,0,0,0,20.91,5.61Z"/><path class="cls-4" d="M24.85,7.61l-.24-.19a.11.11,0,0,0-.14,0l-3,2.48a.11.11,0,0,0,0,.09.11.11,0,0,0,0,.09l.24.19a.11.11,0,0,0,.14,0l1-.76.44.34L22.8,11a.11.11,0,0,0,0,.14l.26.2.07,0h0a.11.11,0,0,0,.08-.06l1.62-3.54A.12.12,0,0,0,24.85,7.61ZM24,8.39,23.5,9.47l-.35-.27Z"/><path class="cls-4" d="M29,13.09l-.22-.46a.11.11,0,0,0-.11-.06l-3.34.28,2.26-2.51a.11.11,0,0,0,0-.13l-.19-.38a.11.11,0,0,0-.15-.05l-3.41,1.65a.12.12,0,0,0-.06.07.12.12,0,0,0,0,.09l.12.23a.12.12,0,0,0,.15.05l2.56-1.25-2.08,2.34a.12.12,0,0,0,0,.13l.13.26a.12.12,0,0,0,.11.06l3.1-.21-2.56,1.24a.11.11,0,0,0-.05.15l.13.26a.11.11,0,0,0,.1.06h0l3.41-1.66A.11.11,0,0,0,29,13.09Z"/><path class="cls-4" d="M29.65,16.08a.11.11,0,0,0-.11-.11h0L25.75,16a.12.12,0,0,0-.08,0,.11.11,0,0,0,0,.08v.26a.11.11,0,0,0,.11.11h0l1.57,0v.42a1.74,1.74,0,0,0,.12.42.8.8,0,0,0,.36.32,1.41,1.41,0,0,0,.67.14h0a2,2,0,0,0,.6-.1.82.82,0,0,0,.41-.27.78.78,0,0,0,.12-.47Zm-.32.71c0,.24-.09.39-.2.44a2.26,2.26,0,0,1-.58.13,2,2,0,0,1-.43-.08.72.72,0,0,1-.25-.13.75.75,0,0,1-.16-.29v-.38l1.62,0Z"/><path class="cls-4" d="M25.48,24a.25.25,0,0,0,0,.12.22.22,0,0,1,.18-.09.3.3,0,0,1,.2.1.33.33,0,0,0,.18.1.09.09,0,0,0,.07,0,.13.13,0,0,0,0-.09.17.17,0,0,0,0,0,.08.08,0,0,1-.06,0s-.07,0-.07-.08a.09.09,0,0,1,.1-.1.11.11,0,0,1,.1,0,.22.22,0,0,1,0,.13.31.31,0,0,1-.06.2.19.19,0,0,1-.15.08.34.34,0,0,1-.21-.1.34.34,0,0,0-.21-.11.1.1,0,0,0-.11.07h0s0,0,0,.05a.07.07,0,0,1-.08.08.1.1,0,0,1-.09-.05.26.26,0,0,1,0-.14.49.49,0,0,1,.39-.46l.12,0a.25.25,0,0,0,.2-.24.23.23,0,0,0-.07-.18.26.26,0,0,0-.19-.07.3.3,0,0,0-.18,0,.19.19,0,0,0-.08.14c.06,0,.09,0,.09.09a.12.12,0,0,1,0,.08.1.1,0,0,1-.08,0,.11.11,0,0,1-.09,0,.19.19,0,0,1,0-.11.32.32,0,0,1,.12-.25.44.44,0,0,1,.29-.1.39.39,0,0,1,.28.1.34.34,0,0,1,.11.26.37.37,0,0,1-.05.2.32.32,0,0,1-.15.13l-.19.08-.19.09A.32.32,0,0,0,25.48,24Z"/><path class="cls-4" d="M26.76,24.41a.36.36,0,0,1-.32-.17.83.83,0,0,1-.12-.47.85.85,0,0,1,.12-.49.38.38,0,0,1,.33-.18.37.37,0,0,1,.32.17.81.81,0,0,1,.12.46.88.88,0,0,1-.12.5A.38.38,0,0,1,26.76,24.41Zm0-1.17c-.2,0-.3.17-.31.51v0a.74.74,0,0,0,.08.37.24.24,0,0,0,.22.13.25.25,0,0,0,.23-.14.81.81,0,0,0,.08-.4.73.73,0,0,0-.08-.37A.24.24,0,0,0,26.78,23.23Z"/><path class="cls-4" d="M27.59,23.94v-.53a.34.34,0,0,0,0-.13.06.06,0,0,0-.06,0h-.09s-.06,0-.06-.06,0-.06.06-.06h.27s0,0,0,0a.22.22,0,0,1,0,.06v0c0,.13,0,.25,0,.36v.21s0,.09,0,.15,0,.13,0,.15,0,.13.07.13h.11c.05,0,.08,0,.08.06s0,.07-.07.07h-.05l-.21,0H27.4s-.07,0-.07-.07,0-.06.08-.06h.1a.06.06,0,0,0,.07-.05A1.39,1.39,0,0,0,27.59,23.94Z"/><path class="cls-4" d="M28.35,23.34l0,.29a.43.43,0,0,1,.28-.1.38.38,0,0,1,.28.11.42.42,0,0,1,.11.3.46.46,0,0,1-.12.33.48.48,0,0,1-.61,0,.29.29,0,0,1-.12-.23.17.17,0,0,1,0-.11.11.11,0,0,1,.09,0,.09.09,0,0,1,.07,0,.1.1,0,0,1,0,.07.09.09,0,0,1,0,.05l0,0h0s0,.08.08.11a.36.36,0,0,0,.19,0,.27.27,0,0,0,.21-.09.34.34,0,0,0,.08-.23.31.31,0,0,0-.07-.21.25.25,0,0,0-.19-.08.3.3,0,0,0-.24.1l0,.05,0,0h0s-.06,0-.06-.08h0l0-.36s0-.05,0-.1a.4.4,0,0,1,0-.12s0,0,.06,0h.53s.06,0,.06.11h0a.55.55,0,0,0,0,.11.16.16,0,0,1,0,0s0,.06-.05.06-.05,0-.05-.09,0-.1-.08-.1H28.4S28.35,23.3,28.35,23.34Z"/><path class="cls-4" d="M21.14,26.83a.34.34,0,1,0-.68,0c0,1.38-1.4,2.5-3.12,2.52s-3.12-1.14-3.12-2.52a.34.34,0,0,0-.68,0c0,1.74,1.68,3.16,3.75,3.19h.09C19.46,30,21.14,28.57,21.14,26.83Z"/><circle class="cls-4" cx="16.09" cy="24.71" r="0.51"/><circle class="cls-4" cx="18.59" cy="24.71" r="0.51"/><path class="cls-4" d="M17.34,1.16A16.17,16.17,0,1,0,33.51,17.33,16.19,16.19,0,0,0,17.34,1.16Zm0,.91A15.27,15.27,0,0,1,32.27,20.48H20.81l-2.92-4.73,1.88-3a.43.43,0,1,0-.73-.45l-1.65,2.67-1.65-2.67a.43.43,0,1,0-.73.45l1.88,3L14,20.48H2.41A15.26,15.26,0,0,1,17.34,2.07ZM2.54,21H13.6L8.26,29.59A15.3,15.3,0,0,1,2.54,21ZM9,30.1l.49-.76,5.06-8.18,2.84-4.54,8.16,13.15h0l.2.32A15.23,15.23,0,0,1,9,30.1Zm17.44-.53L21.17,21h11A15.3,15.3,0,0,1,26.44,29.57Z"/><path class="cls-4" d="M6.3,23.71l-.19,0a.33.33,0,0,1-.18-.06.17.17,0,0,1-.05-.13.22.22,0,0,1,.06-.16.2.2,0,0,1,.15-.06.19.19,0,0,1,.15.07.29.29,0,0,1,.06.19.19.19,0,0,1,0,0v0c0,.05,0,.08.06.08s.06,0,.06-.08v-.06s0-.05,0-.1,0-.11,0-.14v0h0v0c0-.05,0-.08-.06-.08a.06.06,0,0,0-.06.05.31.31,0,0,0-.22-.08.32.32,0,0,0-.24.1.34.34,0,0,0-.1.25c0,.13.06.3.35.32l.13,0s.11,0,.11.17a.23.23,0,0,1-.06.17.23.23,0,0,1-.17.07.24.24,0,0,1-.19-.07A.3.3,0,0,1,5.85,24a.37.37,0,0,1,0,0,.4.4,0,0,0,0,0,.06.06,0,0,0-.06-.07s-.06,0-.06.08,0,0,0,.06,0,.07,0,.12,0,.12,0,.19h0c0,.08.05.09.06.09s.05,0,.06-.06l.06,0a.4.4,0,0,0,.19,0,.34.34,0,0,0,.26-.1.36.36,0,0,0,.1-.26.35.35,0,0,0-.05-.2A.24.24,0,0,0,6.3,23.71Z"/><path class="cls-4" d="M8.08,23.23A.07.07,0,0,0,8,23.16H7.67a.07.07,0,0,0-.07.07.07.07,0,0,0,.07.07h.1a.21.21,0,0,1,0,.06v.72l-.45-.83v0a.09.09,0,0,0-.08-.06H7a.07.07,0,0,0-.07.06.06.06,0,0,0-.07-.06H6.57a.07.07,0,1,0,0,.13h.1a.19.19,0,0,1,0,.06v.79a.15.15,0,0,1,0,.06h-.1a.07.07,0,0,0-.07.07.06.06,0,0,0,.07.07H6.9A.07.07,0,0,0,7,24.29a.07.07,0,0,0,.07.06h.34a.07.07,0,1,0,0-.13H7.29a.16.16,0,0,1,0-.06v-.73l.45.84s0,.08.09.08a.07.07,0,0,0,.06,0,.16.16,0,0,0,0-.1v-.86a.28.28,0,0,1,0-.06H8A.07.07,0,0,0,8.08,23.23Zm-1.1,1a.07.07,0,0,0-.07-.06H6.8a.18.18,0,0,1,0-.06v-.79a.14.14,0,0,1,0-.06h.1A.07.07,0,0,0,7,23.24a.06.06,0,0,0,.07.06h.1a.42.42,0,0,1,0,.08v.77a.22.22,0,0,1,0,.06H7A.07.07,0,0,0,7,24.27Z"/><path class="cls-4" d="M8.81,23.85s-.06,0-.07.11a.31.31,0,0,1-.07.21.23.23,0,0,1-.19.07.26.26,0,0,1-.23-.12.61.61,0,0,1-.09-.35.72.72,0,0,1,.09-.37.24.24,0,0,1,.23-.13.22.22,0,0,1,.18.07.3.3,0,0,1,.07.2.46.46,0,0,1,0,0v.05c0,.06,0,.08.06.08s.06,0,.06-.08V23.6s0-.06,0-.11,0-.1,0-.18v-.06c0-.06,0-.07-.06-.07s0,0-.06.06a.32.32,0,0,0-.25-.1.38.38,0,0,0-.32.17.76.76,0,0,0-.12.44.77.77,0,0,0,.11.44.38.38,0,0,0,.33.17.36.36,0,0,0,.28-.12.46.46,0,0,0,.11-.32C8.87,23.87,8.84,23.85,8.81,23.85Z"/><path class="cls-4" d="M9.71,23.85s-.06,0-.06.1V24s0,0,0,.07a.27.27,0,0,1,0,.11h0s0,0-.12,0H9.2v-.41h.22s0,0,0,0V24h0c0,.09.05.1.07.1s.06,0,.06-.09v0a1.85,1.85,0,0,1,0-.24s0-.09,0-.14a.67.67,0,0,0,0-.07c0-.09-.05-.09-.06-.09s-.06,0-.06.09v.11s0,0-.07,0H9.2V23.4a.6.6,0,0,1,0-.1h.42a.22.22,0,0,1,0,.07h0v.21c0,.09,0,.09.06.09s.06,0,.06-.1v0s0-.08,0-.14,0-.07,0-.1,0-.05,0-.07a.09.09,0,0,0-.09-.1H9v0H9a.07.07,0,1,0,0,.14h.1a.5.5,0,0,1,0,.07v.76a.42.42,0,0,1,0,.07H9a.07.07,0,1,0,0,.14h.69a.09.09,0,0,0,.08,0,.15.15,0,0,0,0-.09v-.09s0,0,0-.06,0-.05,0-.07v0h0C9.77,23.85,9.72,23.85,9.71,23.85Z"/><path class="cls-5" d="M65.08,8.65h1.58V9.79a6.16,6.16,0,0,1-.39,2.08,24.18,24.18,0,0,1,3.1,1.73l-.84.86h2.13L70,13.3A5.16,5.16,0,0,0,72.49,12a3.16,3.16,0,0,0,.7-2.11V8.65h1.58V9.94a5.64,5.64,0,0,1-.39,2,21.49,21.49,0,0,1,3.12,1.45l-.72,1.08h.92v3.16H76.12V15.89H63.58v1.73H62V14.46h.39l-.68-1.08A5.37,5.37,0,0,0,64.35,12a3.34,3.34,0,0,0,.73-2.24Zm-2.59.79,1.36.06a6.67,6.67,0,0,1-.57,2.44l-1.36-.35A4.68,4.68,0,0,0,62.49,9.44Zm1.65,7.24H75.55V20H70.32l-.26.94h7.15v4.52H75.55v-.79H64.29v.79H62.64V20.92h5.55l.26-.94h-4.3Zm-.72-2.22H68A18.88,18.88,0,0,0,65.62,13l0,0A5,5,0,0,1,63.43,14.46Zm.86,8.89H75.55V22.21H64.29Zm9.61-4.52v-1H65.8v1ZM68.24,9.5l1.29.29A7.78,7.78,0,0,1,68.74,12l-1.36-.42A5.39,5.39,0,0,0,68.24,9.5Zm2.43,0,1.45.07a6.83,6.83,0,0,1-.59,2.52l-1.43-.35A5,5,0,0,0,70.67,9.5Zm.83,5h4.81A17.32,17.32,0,0,0,73.72,13,5.19,5.19,0,0,1,71.49,14.46Zm4.78-4.89,1.36.37a8.86,8.86,0,0,1-.57,2.15l-1.51-.5A5.78,5.78,0,0,0,76.27,9.57Z"/><path class="cls-3" d="M92.42,18.88s4.24.81,4.87.81,3.56-.21,3.56-.21a9.87,9.87,0,0,1-4.37,2.79,24,24,0,0,1-4.12.59s.31-2.15.31-2.31S92.42,18.88,92.42,18.88Z"/><path class="cls-5" d="M94.56,16.6,94.86,18q2-.17,3.53-.35.07.38.13.79l1.36-.51a30.9,30.9,0,0,0-.79-3l-1.14.29q.13.62.24,1.25l-1.36.09a27.49,27.49,0,0,0,2.83-4.92l-1.36-.51-.64,1.45-1,.11a24.21,24.21,0,0,0,1.3-3.42l-1.38-.44a26.91,26.91,0,0,1-1.4,4l-.61.06.29,1.29Q96,13.92,97,13.74a23.41,23.41,0,0,1-1.71,2.83Z"/><path class="cls-5" d="M92.77,19.27h0v-.94H91.13v.94H83.5V20.7h5.82a6.53,6.53,0,0,1-1.3.92,21.67,21.67,0,0,1-4.57,1.73l.92,1.51a21.3,21.3,0,0,0,4.85-2.33,8.63,8.63,0,0,0,1.91-1.82v4.81h1.64V20.77h0Z"/><path class="cls-5" d="M84.09,16.46l.2,1.38A36.7,36.7,0,0,0,88,17.32L88,18.4l1.43-.07q-.24-1.86-.51-3.45L87.75,15c0,.36.07.73.11,1.12-.37.06-.77.12-1.19.16a27.46,27.46,0,0,0,2.81-4.79L88.1,11q-.39.88-.79,1.69c-.31.05-.65.09-1,.13a15.56,15.56,0,0,0,1.47-3.67l-1.51-.22a14.42,14.42,0,0,1-1.49,4l-.66,0,.15,1.29q1.47-.15,2.44-.31a22.12,22.12,0,0,1-1.54,2.5Z"/><path class="cls-5" d="M94.34,10.29H92.58a6.58,6.58,0,0,0,.48-1.43l-1.58-.2A8.69,8.69,0,0,1,91,10.29H89.62V18h4.72Zm-1.43,6.39H91.05V14.6h1.85Zm0-3.31H91.05V11.59h1.85Z"/><path class="cls-5" d="M40.16,9.15h14.2v1.29H48V11h7.4v4H53.79V12.23H48v3.51H46.33V12.23h-5.6V15H39.07V11h7.26v-.57H40.16Zm-.07,7h6.1v3.58H44.31v1.36h2v1.08h-2v1.4q1.32-.13,2.44-.33V24.5a64.09,64.09,0,0,1-7.46.86l-.22-1.43,1.16,0V20.63h1.43v3.22l1.14-.09v-4H40.09Zm1.29-3.31h4.32v.94H41.37Zm0,1.58h4.32v1H41.37Zm3.31,4.22V17.25H41.59v1.43Zm10,2.81v4H53.15V25H49v.51H47.47v-4Zm-6-8.61h4.44v.94H48.7Zm0,1.58h4.44v1H48.7ZM49,23.79h4.1V22.7H49Z"/><path class="cls-2" d="M51.58,14.51h0Z"/><path class="cls-2" d="M54.57,20.51v0h0v0l0,0a7.37,7.37,0,0,0-.38-.79L54,19.32a1.4,1.4,0,0,1-.09-.22S53.83,19,53.8,19c-.2-.28-.16-.61-.37-.64s0-.18-.07-.26l0,0c-.14-.25-.17-.33-.26-.52s-.14-.07-.21-.25c.06,0,0,0,0-.09s0,0,0,0l0,0h0c-.06-.1-.06-.08,0,0s0,0,0,0-.15-.31-.11-.35c-.17-.32-.33-.53-.48-.79,0,0,.06,0,.11.08l-.1-.19s.07.1.11.16c0-.26-.28-.44-.36-.74l-.06,0v0s-.06,0-.09-.08.07,0,0-.16a1.55,1.55,0,0,0-.24-.42c0,.08,0,.06,0,0s0-.12-.06-.16l0,0s-.12-.16-.15-.17.08.09.11.09l-.2-.4c-.1-.13,0,0-.1,0l0,0c.24-.51,1.27-2.74-.15-.87v0c-.08.13-.13.23-.19.34a1.24,1.24,0,0,1-.09-.28c-1.15-1.6-.6-.16-.6-.16a4.85,4.85,0,0,0,.45,1c-.05.09-.09.25-.14.3h0c0,.24-.26.41-.3.64a.07.07,0,0,1,0-.07c-.06.15-.14.37-.19.35a6.26,6.26,0,0,0-.45,1.11v0c0,.15-.07.17-.12.33h0a4,4,0,0,1-.22.54h0l-.13.28.06-.1c.07.08-.15.19-.2.42s0,.47-.15.65,0-.11-.06,0c0,0,0-.08,0-.06s-.15.21-.21.39h0c0,.26-.24.39-.26.59a.74.74,0,0,1-.17.28.65.65,0,0,0-.15.31l-.14.18c-.07.14,0,.1,0,.18h.09s0,0,0,0l0,.12.32.16.24.16A5.9,5.9,0,0,0,49,21H49c.12.09.29.08.42.14v0s0,0,0,0c.37.08.75.1,1.09.15,0,0,.13,0,.16,0a1.37,1.37,0,0,1,.33,0h0a.62.62,0,0,1,.22,0h0c.41,0,.79-.1,1.2-.15a6.15,6.15,0,0,0,.62-.12,1.07,1.07,0,0,0,.26-.06l.24-.09H53.6a3.15,3.15,0,0,0,.36-.13h0s0-.06.25-.07h0l.06,0h0l.07,0h0s0,0,.06-.05,0,0,0,0h0l.06,0Z"/><path class="cls-2" d="M54.26,20.65h0S54.27,20.65,54.26,20.65Z"/><path class="cls-2" d="M54.43,20.55h0s0,0,0,0Z"/><path class="cls-2" d="M52,15.48v.06S52,15.52,52,15.48Z"/><path class="cls-4" d="M52.44,18.67a.12.12,0,0,0-.24,0,1.15,1.15,0,0,1-2.24,0,.12.12,0,0,0-.24,0,1.27,1.27,0,0,0,1.35,1.14h0A1.27,1.27,0,0,0,52.44,18.67Z"/><circle class="cls-4" cx="50.55" cy="17.83" r="0.14"/><circle class="cls-4" cx="51.6" cy="17.83" r="0.14"/></svg>