<svg id="svg2438" xmlns="http://www.w3.org/2000/svg" viewBox="0 0 196.48 298.01"><defs><style>.cls-1{fill:#559a69;}.cls-2{fill:#ba6c65;}.cls-3{fill:#ffd449;}</style></defs><title>工作區域 1</title><circle class="cls-1" cx="98.24" cy="140.33" r="98.24"/><polygon class="cls-2" points="97.49 202.55 70.01 298 124.98 298 97.49 202.55"/><path id="path11069" class="cls-3" d="M105.15,15.19c-2.41-18.78,30.07-21.31,31.19-1C147,16.86,155.79,57.6,113.11,64.63,92,68.43,85.57,57.07,73.71,52.83c-5.48-1-15.33,18-27.6,21.35-2.89,1-12.56-.3,3.65-11.65-18.54,8.31-13.3,2.44-9.44.12C44.68,60,50.5,56.52,54.44,55.33c5-2,10.77-4.41,15.87-10.24l-9.77-1.5c19.27-7.66,9.43-17.3,44.6-28.39Z"/></svg>